<svg width="28" height="28" viewBox="0 0 28 28" fill="none" xmlns="http://www.w3.org/2000/svg">
<path fill-rule="evenodd" clip-rule="evenodd" d="M15.5893 21.9283C15.1312 21.9921 14.6549 22.0206 14.166 22.0206C13.6768 22.0206 13.2002 21.9921 12.7418 21.9281C12.6113 23.0167 12.1716 23.8121 11.4817 24.0091C10.2527 24.3601 8.69525 22.6797 8.00297 20.2559C7.83157 19.6558 7.72927 19.0663 7.69102 18.5138C7.13314 18.9217 6.5719 19.0662 6.1383 18.8509C5.26712 18.4185 5.24114 16.6976 6.08025 15.0072C6.5308 14.0996 7.13914 13.3853 7.74079 12.9853C8.23891 7.97209 10.9258 4.14209 14.166 4.14209C17.4062 4.14209 20.0931 7.97165 20.5912 12.9851C21.1927 13.3851 21.8008 14.0993 22.2512 15.0066C23.0904 16.697 23.0644 18.4179 22.1932 18.8504C21.7595 19.0657 21.1981 18.9211 20.6401 18.513C20.6019 19.0657 20.4996 19.6552 20.3281 20.2555C19.6358 22.6794 18.0784 24.3598 16.8494 24.0088C16.1596 23.8118 15.72 23.0166 15.5893 21.9283Z" fill="#836FFF"/>
</svg>
