<svg xmlns="http://www.w3.org/2000/svg" width="20" height="22" viewBox="0 0 20 22" fill="none">
  <path d="M16 21C17.6569 21 19 19.6569 19 18C19 16.3431 17.6569 15 16 15C14.3431 15 13 16.3431 13 18C13 19.6569 14.3431 21 16 21Z" stroke="white" stroke-width="2" stroke-linecap="round" stroke-linejoin="round"/>
  <path d="M16 7.00001C17.6569 7.00001 19 5.65686 19 4C19 2.34315 17.6569 1 16 1C14.3431 1 13 2.34315 13 4C13 5.65686 14.3431 7.00001 16 7.00001Z" stroke="white" stroke-width="2" stroke-linecap="round" stroke-linejoin="round"/>
  <path d="M4 14C5.65686 14 7.00001 12.6569 7.00001 11C7.00001 9.3431 5.65686 8 4 8C2.34315 8 1 9.3431 1 11C1 12.6569 2.34315 14 4 14Z" stroke="white" stroke-width="2" stroke-linecap="round" stroke-linejoin="round"/>
  <path d="M13.5 5.5L6.5 9.50001" stroke="white" stroke-width="2"/>
  <path d="M6.5 12.5L13.5 16.5" stroke="white" stroke-width="2"/>
</svg>